<!-- Generated by IcoMoon.io -->
<svg version="1.1" xmlns="http://www.w3.org/2000/svg" width="1024" height="1024" viewBox="0 0 1024 1024">
<title></title>
<g id="icomoon-ignore">
</g>
<path fill="#4267b2" d="M102.4 0c-56.554 0-102.4 45.846-102.4 102.4v819.2c0 56.556 45.846 102.4 102.4 102.4h444.554v-396.549h-133.451v-154.541h133.451v-113.97c0-132.259 80.778-204.278 198.764-204.278 56.52 0 105.093 4.205 119.245 6.085v138.222l-81.828 0.038c-64.164 0-76.595 30.491-76.595 75.234v98.669h153.037l-19.922 154.541h-133.115v396.549h215.060c56.556 0 102.4-45.844 102.4-102.4v-819.2c0-56.554-45.844-102.4-102.4-102.4h-819.2z"></path>
</svg>
