<!-- Generated by IcoMoon.io -->
<svg version="1.1" xmlns="http://www.w3.org/2000/svg" width="1024" height="1024" viewBox="0 0 1024 1024">
<title></title>
<g id="icomoon-ignore">
</g>
<path fill="#4285f4" d="M1003.51 523.556c0-36.3-3.256-71.204-9.308-104.712h-482.211v198.019h275.548c-11.868 63.995-47.939 118.211-102.164 154.511v128.445h165.468c96.814-89.124 152.668-220.36 152.668-376.264z"></path>
<path fill="#34a853" d="M512 1023.846c138.24 0 254.136-45.839 338.852-124.027l-165.468-128.445c-45.85 30.715-104.494 48.865-173.384 48.865-133.352 0-246.225-90.051-286.487-211.052h-171.055v132.634c84.248 167.306 257.397 282.025 457.542 282.025z"></path>
<path fill="#fbbc05" d="M225.513 609.188c-10.24-30.715-16.058-63.524-16.058-97.263s5.818-66.55 16.058-97.265v-132.635h-171.055c-34.677 69.11-54.458 147.295-54.458 229.9s19.782 160.792 54.458 229.902l171.055-132.639z"></path>
<path fill="#ea4335" d="M512 203.606c75.172 0 142.664 25.829 195.722 76.556l146.852-146.829c-88.668-82.606-204.564-133.333-342.574-133.333-200.145 0-373.294 114.717-457.542 282.023l171.055 132.635c40.262-121 153.135-211.052 286.487-211.052z"></path>
</svg>
