<!-- Generated by IcoMoon.io -->
<svg version="1.1" xmlns="http://www.w3.org/2000/svg" width="1024" height="1024" viewBox="0 0 1024 1024">
<path fill="#fff" d="M524.543 819.073l-11.358-11.361-11.361 11.361c-9.025 8.881-21.194 13.838-33.858 13.788-12.662-0.053-24.792-5.103-33.745-14.056-8.956-8.953-14.009-21.081-14.065-33.742-0.053-12.664 4.901-24.833 13.78-33.861l45.264-45.264c4.445-4.456 9.725-7.99 15.537-10.401s12.044-3.65 18.335-3.648c6.329-0.030 12.598 1.198 18.449 3.609s11.162 5.959 15.631 10.439l45.28 45.264c8.881 9.028 13.832 21.197 13.78 33.861-0.053 12.662-5.106 24.789-14.062 33.742s-21.086 14.004-33.748 14.056c-12.662 0.050-24.831-4.907-33.858-13.788z"></path>
<path fill="#fff" d="M602.815 111.68c-9.938 5.509-18.554 13.121-25.246 22.304 122.589-21.472 225.086 6.4 301.327 69.216 90.463 74.545 136.256 191.967 140.080 311.263 3.839 119.681-34.177 246.784-118.496 344.626-85.216 98.88-215.281 164.911-388.481 164.911s-303.248-66.015-388.48-164.911c-84.32-97.842-122.336-224.962-118.496-344.64 3.84-119.266 49.616-236.688 140.096-311.249 76.24-62.816 178.719-90.688 301.327-69.216-6.692-9.183-15.307-16.795-25.249-22.304-24.399-13.936-52.559-15.68-61.199-15.68-12.731 0-24.939-5.057-33.941-14.059-9-9.002-14.059-21.211-14.059-33.941s5.059-24.94 14.059-33.941c9.003-9.002 21.211-14.059 33.941-14.059 15.36 0 63.2 2.256 108.801 28.32 15.518 8.864 30.272 20.224 43.199 34.4 12.515-13.651 27.092-25.258 43.199-34.4 45.601-26.064 93.441-28.32 108.801-28.32 12.731 0 24.939 5.057 33.941 14.059 9 9.002 14.059 21.211 14.059 33.941s-5.059 24.939-14.059 33.941c-9.003 9.002-21.211 14.059-33.941 14.059-8.64 0-36.8 1.744-61.185 15.68zM527.999 245.264c-10.362 3.672-21.67 3.672-32.032 0-132.896-43.408-227.632-19.216-289.84 32.032-64.288 52.96-102 141.536-105.168 240.239-0.288 8.801-0.288 17.616-0.016 26.463h155.056v-31.999c0-12.731 5.057-24.939 14.059-33.941 9.001-9 21.211-14.059 33.942-14.059s24.939 5.059 33.941 14.059c9 9.003 14.056 21.211 14.056 33.941v31.999h112.001v-95.999c0-12.731 5.059-24.939 14.059-33.941 9.003-9 21.211-14.059 33.941-14.059s24.939 5.059 33.941 14.059c9 9.003 14.059 21.211 14.059 33.941v95.999h111.998v-31.999c0-12.731 5.059-24.939 14.059-33.941 9.003-9 21.211-14.059 33.941-14.059s24.941 5.059 33.941 14.059c9.003 9.003 14.059 21.211 14.059 33.941v31.999h155.039c0.274-8.848 0.274-17.663 0-26.463-3.183-98.703-40.896-187.262-105.184-240.239-62.207-51.248-156.96-75.44-289.856-32.032zM114.96 640c15.040 56.799 42.080 110.927 81.28 156.417 66 76.606 168.96 131.581 315.76 131.581s249.745-54.975 315.76-131.581c39.2-45.491 66.239-99.619 81.281-156.417h-794.081z"></path>
</svg>
