<!-- Generated by IcoMoon.io -->
<svg version="1.1" xmlns="http://www.w3.org/2000/svg" width="1024" height="1024" viewBox="0 0 1024 1024">
<title></title>
<g id="icomoon-ignore">
</g>
<path fill="#000" d="M166.788 372.364c3.879 15.515 19.394 23.273 34.909 23.273h155.152c23.273 0 38.788-15.515 38.788-38.788s-15.515-38.788-38.788-38.788h-62.061l89.212-89.212c11.636-11.636 15.515-27.152 7.758-42.667s-19.394-23.273-34.909-23.273h-155.152c-23.273 0-38.788 15.515-38.788 38.788s15.515 38.788 38.788 38.788h62.061l-89.212 89.212c-11.636 11.636-15.515 27.152-7.758 42.667z"></path>
<path fill="#000" d="M512 899.879c213.333 0 387.879-174.546 387.879-387.879s-174.546-387.879-387.879-387.879c-23.273 0-38.788 15.515-38.788 38.788s15.515 38.788 38.788 38.788c170.667 0 310.303 139.636 310.303 310.303s-139.636 310.303-310.303 310.303-310.303-139.636-310.303-310.303c0-23.273-15.515-38.788-38.788-38.788s-38.788 15.515-38.788 38.788c0 213.333 174.546 387.879 387.879 387.879z"></path>
<path fill="#000" d="M473.212 356.848c23.273 0 38.788 15.515 38.788 38.788v100.849l104.727 104.727c15.515 15.515 15.515 38.788 0 54.303-7.758 7.758-15.515 11.636-27.152 11.636s-19.394-3.879-27.152-11.636l-116.364-116.364c-7.758-7.758-11.636-15.515-11.636-27.152v-116.364c0-23.273 15.515-38.788 38.788-38.788z"></path>
</svg>
