<!-- Generated by IcoMoon.io -->
<svg version="1.1" xmlns="http://www.w3.org/2000/svg" width="1024" height="1024" viewBox="0 0 1024 1024">
<title></title>
<g id="icomoon-ignore">
</g>
<path fill="#fff" d="M548.71 244.066v0zM604.708 341.544v0zM661.965 382.713v0zM737.72 397.864v0zM761.242 468.049v0zM707.287 528.748v0zM687.964 604.831v0zM713.272 713.298v0zM649.974 759.7v0zM555.5 703.713v0zM468.493 703.713v0zM374.020 759.7v0zM310.717 713.298v0zM335.662 606.392v0zM314.649 528.461v0zM261.991 472.612v0zM284.667 401.504v0zM358.213 386.794v0zM415.186 346.116v0zM474.858 243.821v0zM159.144 958.090v0zM65.914 864.86v0zM958.075 864.86v0zM864.845 958.090v0zM864.845 65.927v0zM958.075 159.157v0zM159.144 65.927v0zM65.914 159.157v0zM504.314 269.57l55.998 97.478 88.791-51.008-55.997-97.478-88.792 51.008zM651.924 432.919l75.756 15.151 20.081-100.411-75.756-15.151-20.081 100.411zM722.975 434.034l-53.955 60.7 76.534 68.031 53.955-60.701-76.534-68.030zM638.106 616.468l25.308 108.462 99.722-23.265-25.308-108.467-99.722 23.27zM676.076 715.653l-94.474-55.987-52.204 88.095 94.474 55.982 52.204-88.090zM442.391 659.666l-94.473 55.987 52.204 88.090 94.473-55.982-52.204-88.095zM360.578 724.931l24.945-106.906-99.721-23.27-24.945 106.911 99.721 23.265zM351.901 493.337l-52.658-55.849-74.505 70.248 52.658 55.848 74.505-70.247zM294.708 451.709l73.545-14.709-20.082-100.411-73.545 14.709 20.082 100.411zM459.412 371.914l59.674-102.295-88.453-51.596-59.672 102.295 88.451 51.596zM368.253 437c38.297-7.659 71.48-31.352 91.159-65.086l-88.451-51.596c-4.92 8.434-13.215 14.356-22.79 16.271l20.082 100.411zM299.244 437.488c4.598 4.877 2.037 12.908-4.535 14.222l-20.082-100.411c-72.294 14.459-100.465 102.795-49.888 156.438l74.505-70.248zM385.523 618.025c10.4-44.57-2.224-91.387-33.622-124.688l-74.505 70.247c7.849 8.325 11.005 20.029 8.406 31.171l99.721 23.27zM347.917 715.653c1.025-0.609 2.923-1.198 5.104-1.039 1.911 0.138 3.328 0.788 4.291 1.495s2.012 1.864 2.72 3.64c0.808 2.033 0.816 4.024 0.545 5.181l-99.721-23.265c-18.785 80.507 68.145 144.225 139.265 102.077l-52.204-88.090zM581.601 659.666c-42.921-25.431-96.292-25.431-139.211 0l52.204 88.095c10.729-6.359 24.072-6.359 34.803 0l52.204-88.095zM663.414 724.931c-0.271-1.157-0.261-3.149 0.543-5.181 0.712-1.777 1.761-2.934 2.724-3.64s2.381-1.357 4.291-1.495c2.181-0.159 4.081 0.43 5.105 1.039l-52.204 88.090c71.117 42.148 158.049-21.571 139.264-102.077l-99.722 23.265zM669.020 494.734c-29.466 33.148-40.991 78.542-30.915 121.735l99.722-23.27c-2.519-10.798 0.364-22.144 7.726-30.433l-76.534-68.031zM727.68 448.070c-6.461-1.292-9.083-9.111-4.705-14.036l76.534 68.031c48.164-54.183 19.343-140.189-51.748-154.406l-20.081 100.411zM560.312 367.048c19.61 34.139 53.007 58.15 91.612 65.871l20.081-100.411c-9.651-1.93-17.997-7.933-22.902-16.468l-88.791 51.008zM593.106 218.562c-35.948-62.572-126.112-62.872-162.473-0.539l88.453 51.596c-3.308 5.666-11.505 5.639-14.772-0.049l88.792-51.008zM383.996 93.875h255.999v-102.4h-255.999v102.4zM930.13 384.008v256.002h102.4v-256.002h-102.4zM639.995 930.14h-255.999v102.4h255.999v-102.4zM93.862 640.010v-256.002h-102.4v256.002h102.4zM383.996 930.14c-60.584 0-102.942-0.036-135.948-2.734-32.408-2.647-51.263-7.598-65.659-14.935l-46.489 91.238c31.238 15.918 65.070 22.589 103.81 25.754 38.142 3.118 85.392 3.077 144.286 3.077v-102.4zM-8.537 640.010c0 58.89-0.040 106.143 3.077 144.287 3.165 38.738 9.839 72.571 25.756 103.808l91.239-46.49c-7.335-14.397-12.287-33.249-14.935-65.659-2.697-33.004-2.737-75.366-2.737-135.946h-102.4zM182.389 912.471c-30.507-15.544-55.31-40.351-70.855-70.856l-91.239 46.49c25.362 49.777 65.83 90.245 115.605 115.604l46.489-91.238zM930.13 640.010c0 60.58-0.041 102.943-2.739 135.946-2.647 32.404-7.598 51.261-14.935 65.659l91.244 46.49c15.913-31.237 22.589-65.070 25.754-103.808 3.118-38.144 3.077-85.396 3.077-144.287h-102.4zM639.995 1032.54c58.895 0 106.143 0.041 144.287-3.077 38.743-3.164 72.571-9.836 103.808-25.754l-46.484-91.238c-14.397 7.337-33.254 12.288-65.664 14.935-33.004 2.698-75.361 2.734-135.946 2.734v102.4zM912.456 841.615c-15.544 30.505-40.346 55.311-70.851 70.856l46.484 91.238c49.777-25.359 90.245-65.828 115.61-115.604l-91.244-46.49zM639.995 93.875c60.585 0 102.943 0.039 135.946 2.736 32.41 2.648 51.267 7.6 65.664 14.935l46.484-91.239c-31.237-15.917-65.065-22.591-103.808-25.756-38.144-3.116-85.391-3.077-144.287-3.077v102.4zM1032.53 384.008c0-58.894 0.041-106.144-3.077-144.286-3.164-38.74-9.841-72.571-25.754-103.809l-91.244 46.489c7.337 14.396 12.288 33.252 14.935 65.659 2.698 33.005 2.739 75.364 2.739 135.947h102.4zM841.605 111.546c30.505 15.544 55.306 40.348 70.851 70.855l91.244-46.489c-25.364-49.776-65.833-90.244-115.61-115.606l-46.484 91.239zM383.996-8.525c-58.894 0-106.144-0.040-144.286 3.077-38.74 3.165-72.571 9.839-103.81 25.756l46.489 91.239c14.396-7.335 33.252-12.287 65.659-14.935 33.006-2.697 75.364-2.736 135.948-2.736v-102.4zM93.862 384.008c0-60.583 0.040-102.942 2.737-135.947 2.648-32.408 7.6-51.263 14.935-65.659l-91.239-46.489c-15.917 31.238-22.591 65.069-25.756 103.809-3.116 38.142-3.077 85.392-3.077 144.286h102.4zM135.9 20.307c-49.775 25.362-90.244 65.83-115.605 115.606l91.239 46.489c15.544-30.508 40.348-55.311 70.855-70.855l-46.489-91.239z"></path>
</svg>
