<!-- Generated by IcoMoon.io -->
<svg version="1.1" xmlns="http://www.w3.org/2000/svg" width="1024" height="1024" viewBox="0 0 1024 1024">
<title></title>
<g id="icomoon-ignore">
</g>
<path fill="#1da1f3" d="M1024 199.711c-37.658 15.996-78.638 27.509-120.847 31.992 43.822-25.638 76.641-66.142 92.298-113.912-41.124 24.090-86.175 40.982-133.156 49.928-19.635-20.671-43.382-37.138-69.76-48.376-26.383-11.238-54.83-17.005-83.574-16.942-116.296 0-209.821 92.827-209.821 206.739 0 15.996 1.969 31.992 5.169 47.383-174.133-8.968-329.437-90.888-432.687-216.312-18.813 31.643-28.672 67.672-28.55 104.339 0 71.74 37.042 134.998 93.527 172.201-33.288-1.291-65.796-10.301-94.881-26.297v2.545c0 100.461 72.114 183.714 168.226 202.861-18.046 4.616-36.61 6.978-55.255 7.029-13.66 0-26.582-1.333-39.626-3.151 26.581 81.919 103.987 141.419 196.161 143.359-72.115 55.624-162.442 88.346-260.523 88.346-17.598 0-33.842-0.609-50.702-2.545 93.035 58.772 203.422 92.703 322.3 92.703 385.924 0 597.098-314.834 597.098-588.103 0-8.968 0-17.935-0.614-26.903 40.852-29.447 76.667-65.924 105.216-106.884z"></path>
</svg>
