<!-- Generated by IcoMoon.io -->
<svg version="1.1" xmlns="http://www.w3.org/2000/svg" width="1024" height="1024" viewBox="0 0 1024 1024">
<title></title>
<g id="icomoon-ignore">
</g>
<path d="M1025.024 241.664c0 180.591 0 361.182-0.385 541.936-0.81 1.027-1.505 1.856-1.617 2.759-0.766 6.125-1.442 12.263-2.086 18.403-1.97 18.779-6.335 36.994-12.115 54.964-6.734 20.933-17.636 39.633-30.166 57.393-13.591 19.263-29.003 37.092-48.101 51.129-13.534 9.947-27.543 19.356-41.961 27.963-15.897 9.491-33.531 14.809-51.584 18.963-17.051 3.923-34.166 6.929-51.642 7.883-1.043 0.057-2.022 1.284-3.031 1.967-179.225 0-358.451 0-537.84-0.389-1.199-0.812-2.226-1.578-3.272-1.607-16.882-0.463-33.329-3.774-49.797-7.167-23.423-4.827-45.408-13.464-65.721-25.816-26.188-15.925-49.697-35.334-68.26-59.911-10.107-13.382-19.429-27.498-27.695-42.082-5.85-10.32-10.159-21.727-13.663-33.109-4.151-13.482-7.101-27.379-9.801-41.247-1.779-9.141-2.166-18.552-3.305-27.826-0.070-0.567-1.278-0.994-1.957-1.487 0-180.591 0-361.182 0.446-542.255 0.826-0.926 1.487-1.336 1.544-1.818 0.751-6.301 1.513-12.602 2.085-18.921 1.689-18.681 5.804-36.905 12.035-54.49 4.252-12 9.891-23.587 15.758-34.92 9.27-17.906 21.436-33.9 35.009-48.754 11.497-12.581 24.065-24.085 38.014-33.914 17.111-12.057 34.95-22.758 54.809-29.97 26.056-9.464 52.949-14.297 80.466-16.35 0.885-0.066 1.683-1.287 2.522-1.969 179.225 0 358.451 0 537.84 0.387 0.858 0.806 1.518 1.514 2.25 1.599 9.449 1.096 18.962 1.758 28.35 3.226 10.593 1.657 21.223 3.46 31.575 6.191 21.705 5.727 42.188 14.455 61.159 26.631 21.825 14.008 41.429 30.487 58.437 50.157 13.285 15.364 24.716 31.958 33.875 49.981 5.172 10.178 9.379 20.98 12.783 31.888 3.712 11.897 6.452 24.154 8.761 36.414 2.030 10.776 2.852 21.778 4.327 32.663 0.078 0.579 1.277 1.005 1.954 1.503zM715.264 96.256c-24.66-0.341-49.321-1.016-73.98-0.964-87.968 0.188-175.936 0.565-263.903 0.992-34.217 0.166-68.432 0.616-102.647 1.034-5.551 0.068-11.116 0.456-16.64 1.022-12.121 1.242-24.373 1.923-36.284 4.282-11.374 2.253-22.935 5.124-33.441 9.875-22.754 10.289-41.983 25.465-57.273 45.54-9.364 12.295-17.3 25.2-22.662 39.772-6.259 17.011-8.070 34.823-9.986 52.572-1.41 13.066-1.862 26.266-2.119 39.419-0.572 29.263-1.089 58.534-1.034 87.801 0.174 93.087 0.565 186.174 0.993 279.26 0.143 31.145 0.611 62.29 1.031 93.433 0.075 5.552 0.427 11.12 1.026 16.64 1.584 14.591 2.969 29.222 5.189 43.721 2.476 16.173 9.212 30.944 18.111 44.478 10.143 15.428 21.76 29.878 37.254 40.329 10.745 7.247 21.814 14.288 33.504 19.796 18.199 8.576 38.251 10.354 57.979 12.321 15.11 1.506 30.361 1.81 45.561 2.15 25.508 0.571 51.026 1.079 76.538 1.027 96.159-0.194 192.317-0.572 288.475-0.999 26.026-0.116 52.052-0.593 78.075-1.021 8.794-0.145 17.607-0.337 26.366-1.066 12.985-1.080 25.991-2.236 38.876-4.125 17.944-2.63 34.591-8.868 49.93-18.852 15.704-10.222 29.663-22.129 41.091-37.066 8.066-10.543 14.961-21.663 20.226-33.874 8.004-18.564 10.021-38.364 12.091-58.087 1.39-13.241 1.879-26.609 2.108-39.932 0.569-33.017 1.091-66.042 1.035-99.063-0.154-89.845-0.564-179.69-0.992-269.534-0.133-27.903-0.489-55.808-1.062-83.706-0.274-13.322-0.853-26.67-2.116-39.929-1.036-10.875-2.764-21.749-5.106-32.422-5.544-25.269-19.15-46.234-36.573-64.833-5.378-5.741-11.581-10.761-17.709-15.738-12.25-9.951-25.766-18-40.769-22.832-20.509-6.605-41.925-8.784-63.299-10.257-15.566-1.072-31.223-0.826-47.863-1.167z"></path>
<path d="M168.96 454.656c0-48.978-0.275-97.447 0.137-145.909 0.161-18.97 2.446-37.826 9.050-55.873 5.584-15.26 14.047-28.683 24.894-40.785 11.585-12.925 25.279-22.892 40.804-30.372 10.756-5.183 22.293-7.827 34.063-9.739 23.365-3.797 46.898-2.996 70.402-3.003 123.043-0.031 246.086-0.281 369.127 0.215 24.043 0.097 48.277 2.828 69.758 15.28 9.829 5.698 18.982 12.738 27.819 19.933 12.383 10.083 21.198 23.197 28.252 37.373 6.747 13.559 9.918 28.176 11.845 43.172 3.219 25.046 1.876 50.181 1.908 75.275 0.152 119.8 0.293 239.601-0.132 359.4-0.080 22.572-3.68 44.949-14.129 65.534-13.196 25.995-32.944 45.571-59.030 58.414-13.7 6.745-28.451 10.703-43.78 11.393-21.834 0.982-43.69 1.997-65.538 2.032-121.848 0.192-243.696 0.254-365.544-0.075-19.096-0.052-38.208-2.354-56.372-9.086-15.043-5.576-28.462-13.861-40.305-24.768-12.083-11.127-22.037-23.826-29.282-38.563-6.767-13.764-10.856-28.402-11.786-43.661-1.163-19.086-2.012-38.222-2.069-57.34-0.227-76.111-0.094-152.224-0.094-228.847zM317.952 464.896c48.906 0 97.811 0 146.654 0 0-66.872 0-133.16 0-199.325-0.437-0.184-0.584-0.301-0.731-0.3-55.718 0.318-111.439 0.414-167.153 1.129-14.082 0.181-24.99 9.424-28.895 22.529-1.878 6.304-2.479 13.187-2.504 19.813-0.196 50.683-0.109 101.367-0.097 152.050 0 1.301 0.155 2.602 0.251 4.104 17.366 0 34.408 0 52.475 0zM462.154 760.832c4.541 0.359 2.66-3.144 2.662-4.95 0.095-63.314 0.080-126.628 0.080-189.942 0-1.483 0-2.965 0-4.555-66.754 0-133.044 0-199.162 0-0.268 0.365-0.45 0.497-0.449 0.628 0.311 55.891 0.367 111.786 1.145 167.671 0.193 13.85 9.396 24.619 22.387 28.439 6.311 1.855 13.161 2.571 19.772 2.597 50.855 0.204 101.712 0.112 153.565 0.112zM561.152 352.768c0 37.301 0 74.602 0 111.837 66.874 0 133.162 0 199.68 0 0-5.555 0.030-10.823-0.005-16.090-0.333-50.259-0.548-100.519-1.13-150.775-0.115-9.967-4.497-18.039-12.614-24.683-8.72-7.136-18.933-7.515-28.758-7.611-51.020-0.495-102.048-0.232-153.073-0.22-1.301 0-2.601 0.157-4.101 0.253 0 28.971 0 57.618 0 87.288zM709.12 561.152c-49.247 0-98.494 0-147.678 0 0 66.871 0 133.16 0 199.325 0.437 0.184 0.584 0.301 0.731 0.3 55.718-0.318 111.439-0.414 167.153-1.129 14.081-0.181 25.037-9.413 28.881-22.532 1.943-6.632 2.49-13.867 2.518-20.833 0.201-50.341 0.11-100.684 0.097-151.026 0-1.301-0.155-2.602-0.251-4.104-17.025 0-33.726 0-51.451 0z"></path>
</svg>
